<?xml version="1.0" encoding="UTF-8"?>
<svg width="748px" height="126px" viewBox="0 0 748 126" version="1.1" xmlns="http://www.w3.org/2000/svg" xmlns:xlink="http://www.w3.org/1999/xlink">
    <!-- Generator: Sketch 51.1 (57501) - http://www.bohemiancoding.com/sketch -->
    <title>ckc-logo-color</title>
    <desc>Created with Sketch.</desc>
    <defs></defs>
    <g id="Page-1" stroke="none" stroke-width="1" fill="none" fill-rule="evenodd">
        <g id="ckc-logo-color" fill-rule="nonzero">
            <path d="M48.09,37.71 C48.09,37.71 47.32,32 46.71,30 C45.03,24.48 41.82,21.29 35.71,22.68 C29.6,24.07 28.23,28.82 27.35,34.47 C26,42.92 25.91,51.53 25.88,60.08 C25.88,68.83 25.96,77.53 26.76,86.26 C27.28,91.89 28.21,99.59 33.28,103.15 C34.1139694,103.755686 35.0874041,104.140932 36.11,104.27 C37.5775241,104.343509 39.0234585,103.893427 40.19,103 C42.0925486,101.551376 43.6727302,99.7225887 44.83,97.63 C45.19,97.02 48,90.26 47.32,90.29 C51.32,90.12 69.84,90.94 69.84,90.94 C67.36,100.4 65.26,111.33 57.65,118.22 C53.57,121.91 48.19,123.89 42.78,124.9 C35.51,126.26 27.38,126.13 20.68,122.67 C10.55,117.43 5.06,106 2.61,95.29 C0.51,86.17 0.37,76.72 0.56,67.36 C0.78,56.72 1.42,46.08 2.56,35.5 C3.18,30 3.96,24.5 6,19.3 C7.70091841,14.7055813 10.7031825,10.7060374 14.64,7.79 C18.64,5 23.77,1.98 28.64,1.3 C33.51,0.62 39.12,-0.22 44.03,0.77 C49.4189756,2.04860112 54.4331368,4.5728066 58.67,8.14 C67.34,15.36 70.67,37.39 70.67,37.39 L48.09,37.71 Z" id="Shape" fill="#6ABF4B"></path>
            <path d="M107.57,1.79 C107.93,10.14 107.78,18.63 107.82,27.06 C107.82,31.12 107.37,35.19 107.82,39.49 C108.27,43.79 108.28,48.83 108.28,53.49 C108.28,63.31 108.06,72.86 108.06,82.77 C108.06,87.42 107.54,92.45 108.94,96.96 C109.447443,98.8417974 110.597177,100.486801 112.19,101.61 C114.025807,102.600339 116.112607,103.028133 118.19,102.84 C120.48,102.78 122.9,102.45 124.72,101.05 C126.84,99.44 127.77,96.7 128.1,94.05 C129.34,84.05 128.88,73.52 128.43,63.46 C127.97,53 128.2,43.15 128.2,33.06 L128.2,7.75 C128.2,5.91 128.15,4.06 128.2,2.24 C132.05,2.05 147.44,2.47 151.67,2.68 C152.19,11.84 152.37,55.85 152.37,68.57 L152.37,84.39 C152.37,89.73 152.85,95.22 151.37,100.3 C149.057417,108.738405 143.717449,116.029241 136.37,120.78 C125.65,127.42 111.13,126.32 100.12,121.06 C97.1145596,119.722399 94.3975712,117.813714 92.12,115.44 C88.56,111.51 86.32,105.81 84.98,100.73 C84.0468054,96.7317747 83.3786849,92.6762829 82.98,88.59 C82.98,76.23 82.7,63.74 83.42,51.47 C84.42,35.18 83.42,18.54 83.42,2.2" id="Shape" fill="#6ABF4B"></path>
            <path d="M169.94,3.47 C177.86,3.47 185.94,3.79 193.65,3.95 C194.12,12.77 194.14,21.66 194.53,30.45 C195.12,44.14 194,85.86 194.12,89.11 C194.31,93.89 194.12,98.75 194.39,103.54 C204.73,104.06 215.22,103.54 225.61,104.05 C226.159317,111.035742 226.309561,118.047139 226.06,125.05 C224.73,125.38 216.42,124.97 213.71,125.1 C209.54,125.29 205.4,125.31 201.24,125.31 C190.7,125.31 180.66,125.1 170.17,125.31 C170.27,120.61 170.17,117.17 170.17,113.8 C170.17,108.8 169.95,103.8 169.95,98.7 L169.95,56.05 C169.95,38.59 169.5,20.76 169.5,3.25" id="Shape" fill="#6ABF4B"></path>
            <path d="M231.13,3.41 C249.13,3.01 267.29,1.86 285.25,2.61 C285.708051,9.97782421 285.781484,17.3645256 285.47,24.74 C278.47,25.09 271.56,25.11 264.47,25.47 C263.73,39.01 264.47,52.78 264.47,66.34 C264.47,85.0066667 264.47,103.63 264.47,122.21 C264.47,123.09 264.47,123.98 264.47,124.84 C262.54,125.05 254.68,124.68 252.29,124.84 C248.320191,125.241885 244.328018,125.378855 240.34,125.25 C240.6,120.25 239.89,115.1 240.04,110.01 C240.25,103.37 240.31,96.59 240.31,89.93 C240.31,76.11 240.58,62.16 240.08,48.33 C239.96,44.62 240.08,40.88 240.08,37.16 C240.08,35.24 239.99,33.33 239.87,31.41 C239.8,30.41 239.79,24.89 239.79,24.89 C239.79,24.89 223.56,24.81 219.92,25.15 C219.56,17.81 219.22,11 219.22,3.44" id="Shape" fill="#6ABF4B"></path>
            <path d="M300.13,3.08 L324,2.84 C324,2.84 324.45,15.84 324.3,18.84 C323.79,29.13 323.67,38.99 324.08,49.25 C324.48,59.25 325.68,72.43 324.75,84.1 C323.92,94.34 324.75,124.94 324.75,124.94 C324.75,124.94 302.75,125.54 300.91,125.3 C301.22,122.74 300.56,113.07 300.56,109.63 C300.56,102.14 299.94,81.06 300.12,77.41 C300.33,72.89 300.33,68.41 300.33,63.9 C300.33,58.27 299.42,36.47 299.45,31.05" id="Shape" fill="#6ABF4B"></path>
            <path d="M336.9,3.31 C341.53,27.24 348.09,50.83 353.27,74.67 C354.8,81.67 356.55,88.67 358.2,95.67 C358.86,98.28 359.35,100.81 359.96,103.45 C360.57,106.09 363.89,122.61 364.67,124.93 C372.91,125.33 389.9,125.38 389.9,125.38 C389.9,125.38 391.12,119.38 392.05,116.26 C393.52,111.34 393.76,106.16 394.9,101.26 C396.4,94.71 398.06,88.19 399.69,81.67 C402.95,68.67 406.23,55.6 408.74,42.39 C409.68,37.39 410.41,32.39 411.49,27.51 C412.73,21.92 417.71,2.99 417.71,2.99 L390.71,2.99 C390.71,2.99 388.14,21 387.77,23.56 C386.99,29 385.82,34.23 385.28,39.75 C385,42.62 382.61,57.43 382.4,59.51 C382.19,61.59 379.94,73.72 379.4,77.39 C379.17,78.98 377.4,87.78 377.4,87.78 C377.4,87.78 372.99,67.38 372.62,65.4 C370.39,53.47 365.37,17.78 365.03,15.29 C364.49,11.17 363.44,3.34 363.44,3.34 L336.9,3.31 Z" id="Shape" fill="#6ABF4B"></path>
            <path d="M478.06,57.05 C476.96,53.28 473.06,39.44 472.18,36.23 C471.47,33.58 470.62,31.06 469.88,28.38 C468.96,25.03 466.45,13.55 465.73,11.25 C465.07,9.17 463.55,3.25 463.55,3.25 C463.55,3.25 456.1,2.69 453.25,2.67 L439.49,2.67 C439.49,2.67 436.69,16.55 435.93,18.86 C435.17,21.17 432.32,31.53 431.28,34.47 C430.39,36.97 427.09,51.64 425.77,56.32 C425,59.07 422.15,70.26 421.05,73.48 C419.87,76.9 415.96,91.2 415.29,94.54 C414.58,98.06 410.39,116.78 409.97,118.97 C409.66,120.53 408.71,124.31 408.71,124.31 L432.79,125.37 L437.79,105.95 L465.68,106.13 L469.75,124.71 L495.46,124.71 C495.46,124.71 479.58,62.28 478.06,57.05 Z M442.45,84.11 C443,81.76 444.25,75.9 444.59,74.11 C445.32,70.38 451.92,40.11 451.92,40.11 L453.92,49.22 C454.54,52.48 461,84.02 461,84.02 C461,84.02 448.61,84 442.45,84.11 Z" id="Shape" fill="#6ABF4B"></path>
            <path d="M554,1.92 C554,1.92 554,8.74 554,12.29 C554,15.84 554,23.08 554,23.08 L533.87,23.42 C533.87,23.42 533.87,32.99 533.87,35.09 C533.87,47.58 533.39,124.95 533.39,124.95 L509.76,125.23 C509.76,125.23 509.45,108.72 509.45,100.79 C509.45,89.13 509.9,77.6 509.9,65.93 C509.9,51.93 508.53,23.54 508.53,23.54 L489.29,23.54 C489.29,23.54 488.81,9.14 488.81,2.04 L554,1.92 Z" id="Shape" fill="#6ABF4B"></path>
            <path d="M568.71,3.39 C587.22,3.39 624.41,2.97 624.41,2.97 L624.56,25.11 C624.56,25.11 603.56,25.74 593.16,25.63 C592.8,30.18 593.16,35.22 593.16,39.84 C593.16,44.23 592.75,48.65 592.97,53.08 C597.22,53.29 615.34,52.88 620.2,53.15 C620.31,56.75 620.85,71.3 620.65,75.05 C615.65,74.85 610.65,75.31 605.59,75.31 C601.13,75.31 592.59,75.42 592.59,75.42 C592.59,75.42 593.17,98.33 593.42,103.24 C597.9,103.45 618.66,103.42 624.42,103.75 C624.81,110.85 624.76,124.9 624.76,124.9 C624.76,124.9 580.2,125.64 569.63,125.02 C569.35,119.17 569.41,117.24 569.41,113.1 C569.41,107.48 568.3,42.85 568.3,34.2 C568.3,23.82 568.74,3.2 568.74,3.2" id="Shape" fill="#6ABF4B"></path>
            <path d="M682.33,63.36 L671.75,44.59 L668.28,38.33 L663,44.14 L663.35,63.53 L648.29,63.38 L648.43,2.38 L663.35,2.11 L663.21,9.49 L663.33,16.7 L663.21,23.83 L667.53,18.46 L671.86,13 L676.59,7.85 L680.9,2.47 L699,2.31 L683.68,20.93 L678.55,27 C678.29,27.31 681.95,33.37 682.47,34.32 C686.74,42.11 691.54,49.71 696.25,57.25 L700.06,63.52 L691.06,63.28 L682.33,63.36 Z" id="Shape" fill="#1A5632"></path>
            <path d="M724.35,64 C718.55266,63.9097108 712.971186,61.7861315 708.58,58 C704.260964,53.9902628 701.698723,48.4381404 701.45,42.55 C700.88,29.94 699.06,15.61 709.76,6.55 C717.85,-0.28 730.4,0.11 738.76,6.21 C739.12,6.48 739.48,6.76 739.82,7.05 C743.30469,10.1875827 745.747129,14.3153054 746.82,18.88 C746.996865,19.7789999 747.08064,20.6938293 747.07,21.61 C744.37,21.52 741.67,21.51 738.97,21.61 C737.62,21.61 736.28,21.67 734.97,21.72 C734.56,21.72 731.97,21.72 731.97,21.72 C731.579961,19.4940443 730.339082,17.5072031 728.51,16.18 C725.72,14.31 721.14,15.13 718.93,17.55 C717.495655,19.2822903 716.648289,21.4252169 716.51,23.67 C716.07005,28.5673438 715.979821,33.4898229 716.24,38.4 C716.33,41.29 716.56,44.3 718.03,46.8 C719.930191,49.9924493 723.872644,51.32499 727.32,49.94 C728.828277,49.3416129 730.11636,48.2943906 731.01,46.94 C731.459851,46.0914143 731.815308,45.1960649 732.07,44.27 C732.07,44.27 737.35,44 738,44 L747.24,44 C747.227484,45.2560227 747.042419,46.5043673 746.69,47.71 C745.071033,52.7017313 741.922325,57.0574434 737.69,60.16 C733.774272,62.846112 729.094554,64.1931973 724.35,64 Z" id="Shape" fill="#1A5632"></path>
            <path d="M747.500592,73.24 C745.15145,73.3379922 742.812515,73.5986165 740.5,74.02 C735.917526,74.9514439 731.40636,76.2045456 727,77.77 C724.888026,78.7863769 722.84972,79.9492138 720.9,81.25 C717.066491,83.9518008 713.424465,86.9155412 710,90.12 C706.972326,93.7056026 704.433529,97.6768874 702.45,101.93 C701.45,104.03 697.89,115.2 697.89,115.2 C697.89,115.2 696.16,110.69 695.46,108.48 C694.881815,106.203994 694.143304,103.971753 693.25,101.8 C690.892796,97.7514758 688.256414,93.8720848 685.36,90.19 C683.726039,88.5113014 681.974971,86.9507124 680.12,85.52 C671.218037,77.7130191 659.790303,73.3934283 647.95,73.36 C647.95,73.81 648.31,79.6 648.65,81.93 C648.99,84.26 651.28,93.56 652.26,95.71 C653.352887,97.8337684 654.592561,99.8787297 655.97,101.83 C657.164482,103.887309 658.501062,105.858763 659.97,107.73 C661.598879,109.478723 663.349955,111.109497 665.21,112.61 C669.002962,115.469682 672.996588,118.053006 677.16,120.34 C679.333787,121.305614 681.572612,122.117606 683.86,122.77 C685.581615,123.196362 687.328419,123.513659 689.09,123.72 C691.23,124.04 693.37,124.346667 695.51,124.64 C696.966529,124.814928 698.43609,124.855098 699.9,124.76 C700.206992,122.324994 700.644286,119.908193 701.21,117.52 C701.736266,115.129136 702.404109,112.77165 703.21,110.46 C703.907378,108.105109 704.762648,105.799887 705.77,103.56 C706.938972,101.39498 708.27643,99.3252633 709.77,97.37 C711.140719,95.3274314 712.668688,93.3949025 714.34,91.59 C716.171818,89.9501026 718.131348,88.4587198 720.2,87.13 C722.135292,85.6180022 724.177272,84.2477702 726.31,83.03 C728.487552,81.8814326 730.739204,80.8792134 733.05,80.03 C735.390411,79.2904415 737.775147,78.6992674 740.19,78.26 C742.562687,77.6649509 744.966321,77.200916 747.39,76.87 C747.39,76.2 747.51,73.69 747.500592,73.24 Z" id="Shape" fill="#21562B"></path>
            <path d="M731.55,93 C729.334436,94.2625075 727.230195,95.711055 725.26,97.33 C723.336895,98.9994664 721.569615,100.840383 719.98,102.83 C718.291069,104.736021 716.778224,106.791081 715.46,108.97 C714.251432,111.220356 713.218364,113.56064 712.37,115.97 C711.38858,118.345922 710.566755,120.78467 709.91,123.27 C711.782562,122.803188 713.628578,122.235697 715.44,121.57 C716.17822,119.324227 717.063467,117.129482 718.09,115 C719.275918,112.965872 720.613016,111.023737 722.09,109.19 C723.404461,107.244444 724.861815,105.399354 726.45,103.67 C728.109802,101.996314 729.894992,100.451824 731.79,99.05 C733.730559,97.7224377 735.766039,96.5392525 737.88,95.51 C739.922847,94.3740543 742.037295,93.3719465 744.21,92.51 C744.853903,90.8737505 745.411339,89.2047806 745.88,87.51 C743.368953,88.1020869 740.902826,88.8706631 738.5,89.81 C736.101233,90.6844975 733.777011,91.7512988 731.55,93 Z" id="Shape" fill="#21562B"></path>
            <path d="M731.24,103.61 C729.550462,105.063236 727.978866,106.648207 726.54,108.35 C725.086531,110.038761 723.765922,111.837464 722.59,113.73 C721.427382,115.657241 720.398301,117.661944 719.51,119.73 C723.364191,117.526405 727.068893,115.071079 730.6,112.38 C733.711977,109.240052 736.614863,105.899562 739.29,102.38 C740.497158,100.508416 741.576289,98.5572923 742.52,96.54 C740.483732,97.462774 738.515463,98.5287808 736.63,99.73 C734.735994,100.882446 732.933954,102.179647 731.24,103.61 Z" id="Shape" fill="#21562B"></path>
            <path d="M732.54,83.8 C730.175481,84.6834718 727.884933,85.7535087 725.69,87 C723.509716,88.2748752 721.442213,89.7335014 719.51,91.36 C717.6052,93.0104327 715.851571,94.827648 714.27,96.79 C712.586816,98.6792708 711.074242,100.713884 709.75,102.87 C708.576395,105.125047 707.573582,107.464944 706.75,109.87 C705.824461,112.21632 705.056096,114.621635 704.45,117.07 C703.933252,119.521238 703.546048,121.998006 703.29,124.49 C704.42,124.36 705.21,124.12 706.29,123.92 C706.872451,121.504789 707.610662,119.129821 708.5,116.81 C709.294317,114.437818 710.256757,112.125288 711.38,109.89 C712.482784,107.64027 713.76002,105.480336 715.2,103.43 C716.750725,101.46672 718.463395,99.636972 720.32,97.96 C722.042891,96.1500685 723.905285,94.4782604 725.89,92.96 C727.973597,91.5722938 730.159929,90.3454074 732.43,89.29 C734.653305,88.1564505 736.952084,87.1774647 739.31,86.36 C741.652448,85.5063078 744.043278,84.7917299 746.47,84.22 C746.72,82.89 746.99,81.57 747.14,80.22 C744.616915,80.4641388 742.114091,80.8851746 739.65,81.48 C737.228755,82.0864343 734.852945,82.8616635 732.54,83.8 Z" id="Shape" fill="#21562B"></path>
        </g>
    </g>
</svg>